<svg width="64" height="53" viewBox="0 0 64 53" fill="none" xmlns="http://www.w3.org/2000/svg">
<mask id="path-1-inside-1_1_43" fill="white">
<path d="M7 7C7 3.13401 10.134 0 14 0H51C54.866 0 58 3.13401 58 7V24C58 27.866 54.866 31 51 31H14C10.134 31 7 27.866 7 24V7Z"/>
</mask>
<path d="M7 7C7 3.13401 10.134 0 14 0H51C54.866 0 58 3.13401 58 7V24C58 27.866 54.866 31 51 31H14C10.134 31 7 27.866 7 24V7Z" fill="white"/>
<path d="M6 7C6 2.58172 9.58172 -1 14 -1H51C55.4183 -1 59 2.58172 59 7H57C57 3.68629 54.3137 1 51 1H14C10.6863 1 8 3.68629 8 7H6ZM58 31H7H58ZM14 31C9.58172 31 6 27.4183 6 23V7C6 2.58172 9.58172 -1 14 -1V1C10.6863 1 8 3.68629 8 7V24C8 27.866 10.6863 31 14 31ZM51 -1C55.4183 -1 59 2.58172 59 7V23C59 27.4183 55.4183 31 51 31C54.3137 31 57 27.866 57 24V7C57 3.68629 54.3137 1 51 1V-1Z" fill="#D5D5D5" mask="url(#path-1-inside-1_1_43)"/>
<rect x="16" y="5" width="32" height="4" rx="2" fill="#FFE2D7"/>
<rect x="16" y="15" width="32" height="4" rx="2" fill="#FFE2D7"/>
<rect x="11" y="5" width="4" height="4" rx="2" fill="#F25C25"/>
<rect x="16" y="10" width="17" height="4" rx="2" fill="#FFE2D7"/>
<rect x="16" y="22" width="26" height="4" rx="2" fill="#D9D9D9"/>
<path d="M11.9009 29.8344V45.001" stroke="#F25C25" stroke-width="1.5" stroke-linecap="round"/>
<path d="M11.875 44.6667C11.6064 44.6667 11.0576 44.3842 9.96011 43.8194C8.84462 43.2454 7.30351 42.6742 5.32885 42.3157C3.11373 41.9134 2.00616 41.7124 1.50308 41.1186C1 40.5249 1 39.5738 1 37.6718V30.196C1 28.1158 1 27.0757 1.78385 26.4352C2.5677 25.7947 3.48809 25.9618 5.32885 26.296C8.96241 26.9557 11.128 28.3357 11.875 29.128C12.622 28.3357 14.7876 26.9557 18.4211 26.296C20.2619 25.9618 21.1823 25.7947 21.9662 26.4352C22.75 27.0757 22.75 28.1158 22.75 30.196V33.5833" stroke="#F25C25" stroke-width="1.5" stroke-linecap="round" stroke-linejoin="round"/>
<path d="M23.7937 37.0125L24.6337 37.8203C25.3443 38.5036 25.3443 39.6117 24.6337 40.2951L20.2331 44.6066C19.887 44.9394 19.4442 45.1639 18.9629 45.2504L16.2356 45.8197C15.805 45.9095 15.4216 45.5419 15.5138 45.1275L16.0944 42.5198C16.1843 42.057 16.4176 41.6311 16.7638 41.2983L21.2202 37.0125C21.931 36.3292 23.0831 36.3292 23.7937 37.0125Z" stroke="#F25C25" stroke-width="1.5" stroke-linecap="round" stroke-linejoin="round"/>
<rect width="18.6111" height="28.2787" rx="4" transform="matrix(0.91418 0.405308 -0.353132 0.935574 46.9861 19)" fill="#FBCEBD"/>
<rect width="12.8659" height="1.78073" rx="0.890367" transform="matrix(0.91068 0.413113 -0.360264 0.93285 47.6533 22.9836)" fill="white"/>
<rect width="12.8659" height="1.78073" rx="0.890367" transform="matrix(0.91068 0.413113 -0.360264 0.93285 45.1473 28.6372)" fill="white"/>
<rect width="7.03927" height="1.78073" rx="0.890367" transform="matrix(0.91068 0.413113 -0.360264 0.93285 46.7457 25.1724)" fill="white"/>
<rect width="7.03927" height="1.78073" rx="0.890367" transform="matrix(0.91068 0.413113 -0.360264 0.93285 44.348 31.2359)" fill="white"/>
</svg>
