<svg width="108" height="108" viewBox="0 0 108 108" fill="none" xmlns="http://www.w3.org/2000/svg">
<g filter="url(#filter0_d_1_5)">
<rect x="4" width="100" height="100" rx="22" fill="#00AE1D"/>
<path d="M32.5 58.6154V41.3846C32.5 40.6547 32.1628 39.9728 31.5941 39.4828C31.0277 38.9949 30.2736 38.7308 29.5 38.7308C28.7264 38.7308 27.9723 38.9949 27.4059 39.4828C26.8372 39.9728 26.5 40.6547 26.5 41.3846V58.6154C26.5 59.3453 26.8372 60.0272 27.4059 60.5172C27.9723 61.0051 28.7264 61.2692 29.5 61.2692C30.2736 61.2692 31.0277 61.0051 31.5941 60.5172C32.1628 60.0272 32.5 59.3453 32.5 58.6154ZM42 21.5C41.2264 21.5 40.4723 21.7641 39.9059 22.252C39.3372 22.742 39 23.4239 39 24.1538V75.8462C39 76.5761 39.3372 77.258 39.9059 77.748C40.4723 78.2359 41.2264 78.5 42 78.5C42.7736 78.5 43.5277 78.2359 44.0941 77.748C44.6628 77.258 45 76.5761 45 75.8462V24.1538C45 23.4239 44.6628 22.742 44.0941 22.252C43.5277 21.7641 42.7736 21.5 42 21.5ZM54.5 30.1154C53.7264 30.1154 52.9723 30.3795 52.4059 30.8674C51.8372 31.3574 51.5 32.0393 51.5 32.7692V67.2308C51.5 67.9607 51.8372 68.6426 52.4059 69.1326C52.9723 69.6205 53.7264 69.8846 54.5 69.8846C55.2736 69.8846 56.0277 69.6205 56.5941 69.1326C57.1628 68.6426 57.5 67.9607 57.5 67.2308V32.7692C57.5 32.0393 57.1628 31.3574 56.5941 30.8674C56.0277 30.3795 55.2736 30.1154 54.5 30.1154ZM67 38.7308C66.2264 38.7308 65.4723 38.9949 64.9059 39.4828C64.3372 39.9728 64 40.6547 64 41.3846V58.6154C64 59.3453 64.3372 60.0272 64.9059 60.5172C65.4723 61.0051 66.2264 61.2692 67 61.2692C67.7736 61.2692 68.5277 61.0051 69.0941 60.5172C69.6628 60.0272 70 59.3453 70 58.6154V41.3846C70 40.6547 69.6628 39.9728 69.0941 39.4828C68.5277 38.9949 67.7736 38.7308 67 38.7308ZM79.5 34.4231C78.7264 34.4231 77.9723 34.6872 77.4059 35.1751C76.8372 35.6651 76.5 36.347 76.5 37.0769V62.9231C76.5 63.653 76.8372 64.3349 77.4059 64.8249C77.9723 65.3128 78.7264 65.5769 79.5 65.5769C80.2736 65.5769 81.0277 65.3128 81.5941 64.8249C82.1628 64.3349 82.5 63.653 82.5 62.9231V37.0769C82.5 36.347 82.1628 35.6651 81.5941 35.1751C81.0277 34.6872 80.2736 34.4231 79.5 34.4231Z" fill="white" stroke="black"/>
</g>
<defs>
<filter id="filter0_d_1_5" x="0" y="0" width="108" height="108" filterUnits="userSpaceOnUse" color-interpolation-filters="sRGB">
<feFlood flood-opacity="0" result="BackgroundImageFix"/>
<feColorMatrix in="SourceAlpha" type="matrix" values="0 0 0 0 0 0 0 0 0 0 0 0 0 0 0 0 0 0 127 0" result="hardAlpha"/>
<feOffset dy="4"/>
<feGaussianBlur stdDeviation="2"/>
<feComposite in2="hardAlpha" operator="out"/>
<feColorMatrix type="matrix" values="0 0 0 0 0 0 0 0 0 0 0 0 0 0 0 0 0 0 0.25 0"/>
<feBlend mode="normal" in2="BackgroundImageFix" result="effect1_dropShadow_1_5"/>
<feBlend mode="normal" in="SourceGraphic" in2="effect1_dropShadow_1_5" result="shape"/>
</filter>
</defs>
</svg>
