<svg width="101" height="76" viewBox="0 0 101 76" fill="none" xmlns="http://www.w3.org/2000/svg">
<mask id="path-1-inside-1_1_15" fill="white">
<path d="M23.7272 7C23.7272 3.13401 26.8612 0 30.7272 0H94C97.866 0 101 3.13401 101 7V46.861C101 50.727 97.866 53.861 94 53.861H30.7272C26.8612 53.861 23.7272 50.727 23.7272 46.861V7Z"/>
</mask>
<path d="M23.7272 7C23.7272 3.13401 26.8612 0 30.7272 0H94C97.866 0 101 3.13401 101 7V46.861C101 50.727 97.866 53.861 94 53.861H30.7272C26.8612 53.861 23.7272 50.727 23.7272 46.861V7Z" fill="#E5E6FC"/>
<path d="M23.2272 7C23.2272 2.85786 26.5851 -0.5 30.7272 -0.5H94C98.1421 -0.5 101.5 2.85786 101.5 7H100.5C100.5 3.41015 97.5898 0.5 94 0.5H30.7272C27.1374 0.5 24.2272 3.41015 24.2272 7H23.2272ZM101 53.861H23.7272H101ZM30.7272 53.861C26.5851 53.861 23.2272 50.5031 23.2272 46.361V7C23.2272 2.85786 26.5851 -0.5 30.7272 -0.5V0.5C27.1374 0.5 24.2272 3.41015 24.2272 7V46.861C24.2272 50.727 27.1374 53.861 30.7272 53.861ZM94 -0.5C98.1421 -0.5 101.5 2.85786 101.5 7V46.361C101.5 50.5031 98.1421 53.861 94 53.861C97.5898 53.861 100.5 50.727 100.5 46.861V7C100.5 3.41015 97.5898 0.5 94 0.5V-0.5Z" fill="#D5D5D5" mask="url(#path-1-inside-1_1_15)"/>
<path d="M1 55.7433C1 46.6655 1 42.1267 3.45926 39.3066C5.91854 36.4865 9.87667 36.4865 17.7929 36.4865C25.7091 36.4865 29.6673 36.4865 32.1267 39.3066C34.5859 42.1267 34.5859 46.6655 34.5859 55.7433C34.5859 64.8209 34.5859 69.3598 32.1267 72.18C29.6673 75 25.7091 75 17.7929 75C9.87667 75 5.91854 75 3.45926 72.18C1 69.3598 1 64.8209 1 55.7433Z" stroke="#5861FF" stroke-width="1.75"/>
<path d="M17.793 47.6351V63.8513" stroke="#5861FF" stroke-width="1.75" stroke-linecap="round" stroke-linejoin="round"/>
<path d="M12.4899 51.6892V59.7973" stroke="#5861FF" stroke-width="1.75" stroke-linecap="round" stroke-linejoin="round"/>
<path d="M7.18695 53.7162V57.7703" stroke="#5861FF" stroke-width="1.75" stroke-linecap="round" stroke-linejoin="round"/>
<path d="M23.096 51.6892V59.7973" stroke="#5861FF" stroke-width="1.75" stroke-linecap="round" stroke-linejoin="round"/>
<path d="M28.399 53.7162V57.7703" stroke="#5861FF" stroke-width="1.75" stroke-linecap="round" stroke-linejoin="round"/>
<rect x="31.303" y="8.68726" width="57.5758" height="8.68726" rx="4.34363" fill="#B5B8FE"/>
<rect x="31.303" y="22.5869" width="33.3333" height="8.68726" rx="4.34363" fill="#B5B8FE"/>
<rect x="76.7576" y="41.6988" width="12.1212" height="5.21236" rx="2.60618" fill="#5861FF"/>
</svg>
